<?xml version="1.0" standalone="no"?>
<!DOCTYPE svg PUBLIC "-//W3C//DTD SVG 20010904//EN"
 "http://www.w3.org/TR/2001/REC-SVG-20010904/DTD/svg10.dtd">
<svg version="1.0" xmlns="http://www.w3.org/2000/svg"
 width="542.000000pt" height="542.000000pt" viewBox="0 0 542.000000 542.000000"
 preserveAspectRatio="xMidYMid meet">
<metadata>
Created by potrace 1.11, written by Peter Selinger 2001-2013
</metadata>
<g transform="translate(0.000000,542.000000) scale(0.100000,-0.100000)"
fill="#000000" stroke="none">
<path d="M2610 5355 c-41 -24 -86 -49 -98 -55 -13 -6 -54 -28 -90 -49 -37 -21
-92 -52 -122 -68 -189 -104 -599 -332 -618 -344 l-22 -14 2 -553 3 -554 170
-95 c94 -52 197 -109 230 -127 33 -18 80 -44 105 -58 136 -77 373 -208 375
-208 2 0 34 -18 71 -40 38 -22 75 -40 82 -40 8 0 76 34 151 76 75 42 159 89
186 104 28 15 88 49 135 75 47 26 110 61 140 77 30 17 139 77 243 135 l187
105 0 552 0 551 -22 14 c-13 8 -48 28 -78 44 -30 17 -252 140 -493 274 -241
133 -443 243 -450 242 -7 0 -46 -20 -87 -44z"/>
<path d="M1410 4286 c-25 -13 -76 -40 -115 -61 -38 -20 -140 -73 -225 -117
-85 -45 -159 -84 -165 -88 -5 -4 -77 -43 -160 -86 -82 -43 -190 -99 -240 -125
l-90 -47 0 -587 c0 -574 -1 -587 -20 -598 -11 -7 -51 -29 -90 -50 -38 -21 -92
-51 -120 -67 -27 -16 -79 -44 -115 -64 l-65 -35 0 -557 0 -558 60 -34 c33 -19
92 -51 130 -72 39 -21 241 -133 450 -249 209 -116 386 -211 394 -211 8 0 161
82 340 181 179 100 360 200 401 222 41 22 92 51 112 64 21 12 40 23 42 23 5 0
127 69 136 77 3 3 5 252 6 554 1 490 -1 550 -15 562 -9 8 -50 32 -91 54 -41
23 -265 146 -496 275 -274 152 -430 233 -444 231 -12 -2 -52 -20 -88 -42 -37
-21 -76 -43 -88 -49 l-21 -11 -1 337 c0 204 4 342 10 349 5 6 37 26 71 44 34
17 89 46 122 64 52 28 220 116 368 193 26 14 48 28 48 31 1 5 5 471 4 471 0 0
-20 -11 -45 -24z"/>
<path d="M3949 4307 c-1 -1 -2 -105 -3 -231 -2 -204 0 -231 15 -244 9 -8 72
-43 140 -79 68 -35 171 -90 229 -121 58 -31 130 -69 162 -84 31 -16 60 -34 66
-41 13 -16 13 -677 0 -677 -9 0 -79 37 -164 86 -34 19 -39 18 -170 -57 -21
-12 -59 -33 -84 -47 -25 -13 -58 -32 -75 -42 -16 -10 -55 -31 -85 -48 -57 -31
-209 -115 -270 -149 -19 -11 -111 -62 -205 -113 -93 -51 -173 -98 -177 -104
-4 -6 -8 -257 -8 -558 l0 -547 68 -39 c37 -22 96 -55 132 -74 108 -59 163 -90
195 -108 17 -10 57 -32 90 -50 33 -18 116 -65 185 -103 69 -38 150 -83 180
-99 30 -17 84 -47 121 -68 l68 -38 48 25 c39 22 341 189 618 343 33 19 130 72
215 119 l155 86 3 556 2 556 -196 108 c-108 60 -201 118 -208 129 -10 16 -13
151 -12 589 1 313 -1 572 -4 576 -3 4 -63 38 -135 76 -71 37 -161 84 -200 105
-69 37 -151 80 -370 195 -60 32 -158 84 -217 116 -60 31 -109 56 -109 56z"/>
<path d="M1845 887 c-153 -85 -213 -119 -277 -154 -38 -21 -68 -40 -68 -43 0
-4 119 -72 319 -181 36 -19 127 -69 201 -111 74 -41 155 -86 180 -100 25 -14
147 -82 272 -151 l228 -127 438 244 c242 134 470 261 508 282 38 21 89 49 114
64 25 14 66 37 92 50 37 19 45 27 35 37 -12 11 -403 232 -412 232 -3 0 -68
-36 -146 -79 -78 -44 -144 -80 -146 -80 -2 0 -20 -10 -41 -23 -20 -13 -68 -41
-107 -62 -38 -21 -126 -69 -194 -107 -69 -38 -132 -70 -140 -71 -9 0 -59 23
-111 53 -52 29 -113 63 -135 75 -22 12 -56 31 -75 42 -197 111 -447 248 -455
249 -5 0 -41 -17 -80 -39z"/>
</g>
</svg>
