<?xml version="1.0" encoding="utf-8"?>
<!-- Generator: Adobe Illustrator 22.1.0, SVG Export Plug-In . SVG Version: 6.00 Build 0)  -->
<svg version="1.1" id="Layer_1" xmlns="http://www.w3.org/2000/svg" xmlns:xlink="http://www.w3.org/1999/xlink" x="0px" y="0px"
	 viewBox="0 0 600 600" style="enable-background:new 0 0 600 600;" xml:space="preserve">
<style type="text/css">
	.st0{clip-path:url(#SVGID_2_);}
	.st1{fill:#1FBDA2;}
	.st2{fill:#253143;}
	.st3{fill:#FFFFFF;}
</style>
<title>ENSAMBLER LOGO4</title>
<g>
	<defs>
		<rect id="SVGID_1_" x="741" y="-507" width="358.6" height="345"/>
	</defs>
	<clipPath id="SVGID_2_">
		<use xlink:href="#SVGID_1_"  style="overflow:visible;"/>
	</clipPath>
	<g class="st0">
	</g>
</g>
<path class="st1" d="M502.1,285.2v-2.5c0-23.1,0-46.2,0-69.3c0.2-1.4-0.6-2.7-1.9-3.2c-21-11-41.9-22-62.8-33.1
	c-1.3-0.5-2.1-1.8-2-3.2c0.1-15.3,0-30.5,0-45.8v-2.3c1,0.5,1.7,0.8,2.4,1.2c35.6,18.8,71.2,37.6,106.8,56.3c1.4,0.6,2.2,2,2,3.4
	c0,40.1,0,80.3-0.1,120.4c-0.2,1.8,0.9,3.5,2.5,4.2c13.4,7.4,26.8,14.8,40.2,22.2c1.2,0.5,2,1.8,1.8,3.1c0,38.1,0,76.1,0,114.2
	c0.1,1.3-0.6,2.6-1.8,3.1c-35.9,19.9-71.7,39.8-107.5,59.7c-1.1,0.7-2.5,0.7-3.6,0c-35.8-19.9-71.7-39.9-107.5-59.7
	c-1.2-0.5-2-1.8-1.8-3.1c0-38.1,0-76.1,0-114.2c-0.1-1.3,0.6-2.6,1.9-3.1c35.9-19.9,71.7-39.8,107.5-59.8c1.1-0.7,2.5-0.7,3.6,0
	c6,3.4,12.1,6.8,18.2,10.1C500.5,284.5,501.2,284.8,502.1,285.2z M522.3,347.8c-0.5-0.4-0.8-0.6-1-0.7
	c-13.4-7.5-26.9-14.9-40.3-22.3c-0.8-0.3-1.7-0.3-2.5,0.1c-13.1,7.2-26.2,14.5-39.3,21.8c-0.5,0.3-1,0.6-1.7,1.1
	c11.8,6.4,23.3,12.6,34.8,18.9c2.5,1.4,5.1,3.7,7.6,3.7s5.1-2.4,7.6-3.7C499,360.4,510.5,354.1,522.3,347.8z M457.5,451.3
	c0.1-0.3,0.1-0.7,0.1-1c0-13.2,0-26.4,0-39.6c0-1.4-0.8-1.9-1.8-2.4c-13.5-7.3-27.1-14.7-40.6-22c-0.6-0.3-1.3-0.6-2.1-1
	c0,13.6,0,26.9,0.1,40.2c0,0.7,0.9,1.6,1.6,2c7.8,4.4,15.7,8.8,23.6,13.2L457.5,451.3z M546.5,385.3c-0.7,0.3-1,0.4-1.3,0.6
	c-13.9,7.5-27.8,15.1-41.8,22.6c-1,0.5-1.6,1.6-1.4,2.7c0,12.7,0,25.5,0,38.2v1.7c0.2,0,0.5,0,0.7-0.1c14.2-7.9,28.4-15.8,42.6-23.7
	c0.6-0.4,1-1.1,1.1-1.9C546.5,412.1,546.5,398.9,546.5,385.3L546.5,385.3z"/>
<path class="st2" d="M168.8,125.9v2.5c0,15.1,0,30.2,0,45.3c0.2,1.5-0.6,2.9-2,3.4c-20.9,11-41.7,22-62.6,33c-1.4,0.6-2.3,2-2.1,3.6
	c0.1,23,0.1,45.9,0,68.9v2.7l9.2-5.1c3.9-2.1,7.7-4.4,11.7-6.4c0.9-0.4,1.9-0.4,2.7,0c36.2,20,72.3,40,108.4,60.1
	c0.8,0.5,1.3,1.4,1.4,2.4c0.1,38.4,0.1,76.7,0,115.1c-0.1,0.9-0.6,1.8-1.4,2.3c-36.1,20.1-72.2,40.2-108.3,60.2
	c-0.9,0.4-1.8,0.4-2.7,0c-36.1-20-72.1-40-108.2-60c-1.1-0.5-1.7-1.6-1.6-2.8c0-38.2,0-76.4,0-114.6c-0.1-1.2,0.6-2.3,1.7-2.7
	c13.6-7.5,27.1-15.1,40.7-22.5c1.4-0.6,2.3-2,2.1-3.6c-0.1-40.3-0.1-80.6-0.1-120.9c0-1.4,0.1-2.4,1.6-3.2
	c35.9-18.9,71.8-37.9,107.7-56.8C167.4,126.5,167.9,126.3,168.8,125.9z M81.8,347.7c13.9,7.5,27.3,14.8,40.8,22.1
	c1.1,0.7,2.5,0.7,3.6,0c12.9-7.1,25.8-14.1,38.8-21.1c0.6-0.3,1.1-0.6,1.8-1.1c-0.5-0.3-0.8-0.6-1.1-0.7
	c-13.3-7.4-26.7-14.8-40.1-22.2c-0.9-0.3-1.9-0.2-2.7,0.2c-10.4,5.7-20.8,11.5-31.2,17.3L81.8,347.7z M102.1,451.4
	c0-13.9,0-27.4-0.1-40.9c-0.2-0.9-0.8-1.6-1.5-2c-13.6-7.5-27.3-14.9-41-22.2c-0.5-0.3-1.1-0.5-1.9-0.9c0,13.5,0,26.8,0.1,40
	c0.2,0.9,0.8,1.7,1.6,2.2c10.5,5.9,21,11.7,31.6,17.6L102.1,451.4z M191,385.4c-0.3,0.1-0.6,0.2-0.9,0.3
	c-14.1,7.6-28.2,15.2-42.3,23c-0.7,0.6-1.2,1.5-1.2,2.5c-0.1,12.8,0,25.6,0,38.4c0,0.5,0,1,0.1,1.4c0.3,0.1,0.4,0.1,0.4,0.1
	c14.4-8,28.7-15.9,43-23.9c0.6-0.4,0.9-1.1,0.9-1.7C191,412.2,191,398.9,191,385.4z"/>
<path class="st2" d="M191,129.4c0-19,0-37.9,0-56.9c-0.1-1.4,0.6-2.7,1.9-3.2c35.8-19.9,71.6-39.8,107.4-59.7c1-0.7,2.4-0.7,3.4-0.1
	c35.9,20,71.9,40,107.9,59.9c1.1,0.5,1.7,1.6,1.6,2.8c0,38.1,0,76.3,0,114.4c0.1,1.2-0.5,2.3-1.6,2.8c-36,19.9-72,39.9-107.9,59.9
	c-1.1,0.7-2.4,0.6-3.4-0.1c-35.8-19.9-71.6-39.9-107.5-59.7c-1.3-0.5-2.1-1.9-1.9-3.2C191,167.3,191,148.4,191,129.4z M259.8,83.1
	c0.3,0.3,0.4,0.5,0.5,0.5c13.6,7.4,27.2,14.7,40.8,22.1c0.8,0.3,1.6,0.2,2.4-0.2c13.3-7.1,26.6-14.3,39.8-21.5
	c0.4-0.3,0.8-0.6,1.2-0.9c-0.4-0.3-0.6-0.5-0.9-0.6c-13.3-7.4-26.6-14.8-39.9-22.2c-1-0.6-2.3-0.5-3.2,0.2
	c-12.9,7.2-25.8,14.4-38.8,21.6C261,82.3,260.4,82.6,259.8,83.1L259.8,83.1z M279.9,186.9c0-13.9,0-27.3-0.1-40.8
	c-0.2-0.9-0.8-1.7-1.6-2.2c-13.6-7.4-27.1-14.8-40.7-22.1c-0.6-0.3-1.1-0.6-1.9-0.9c0,0.6-0.1,0.9-0.1,1.2c0,12.9,0,25.8-0.1,38.6
	c0,1.4,0.7,1.9,1.7,2.5c13.6,7.5,27.2,15.1,40.7,22.6C278.4,186.2,279,186.4,279.9,186.9z M324.3,186.9c0.6-0.3,0.9-0.4,1.1-0.5
	c14-7.8,28-15.6,42.1-23.3c1.3-0.7,1.2-1.6,1.2-2.8c0-12.4,0-24.9,0-37.3v-2.1c-0.6,0.2-0.8,0.3-1.1,0.4
	c-14,7.6-28.1,15.2-42.1,22.8c-0.7,0.5-1.1,1.3-1.2,2.2c-0.1,2.4,0,4.7,0,7.1V186.9z"/>
<path class="st2" d="M430.7,512.8c-0.8,0.5-1.4,0.9-2,1.3c-41.6,23.1-83.2,46.2-124.7,69.3c-1.1,0.8-2.5,0.8-3.6,0.1
	c-41.6-23.2-83.2-46.3-124.9-69.4c-0.6-0.3-1.1-0.7-1.9-1.2c0.7-0.4,1.2-0.8,1.7-1.1c14-7.8,28.1-15.5,42.1-23.4
	c1.1-0.7,2.5-0.7,3.6,0.1c26.2,14.6,52.5,29.2,78.7,43.8c1.5,1,3.5,1,5-0.1c26.1-14.6,52.2-29.1,78.3-43.6c1.3-0.9,3.1-0.9,4.4,0
	c13.7,7.7,27.4,15.3,41.1,22.9C429.1,511.9,429.8,512.3,430.7,512.8z"/>
<path class="st2" d="M522.3,347.8c-11.8,6.4-23.3,12.6-34.8,18.9c-2.5,1.4-5.1,3.7-7.6,3.7s-5.1-2.3-7.6-3.7
	c-11.5-6.2-23-12.5-34.8-18.9c0.7-0.5,1.2-0.8,1.7-1.1c13.1-7.3,26.2-14.6,39.3-21.8c0.8-0.4,1.7-0.5,2.5-0.1
	c13.5,7.4,26.9,14.8,40.3,22.3C521.6,347.2,521.8,347.4,522.3,347.8z"/>
<path class="st2" d="M457.5,451.3l-19-10.5c-7.9-4.4-15.8-8.7-23.6-13.2c-0.7-0.4-1.6-1.3-1.6-2c-0.1-13.3-0.1-26.6-0.1-40.2
	c0.8,0.4,1.5,0.7,2.1,1c13.5,7.3,27.1,14.7,40.6,22c1,0.5,1.8,1,1.8,2.4c-0.1,13.2,0,26.4,0,39.6C457.6,450.7,457.6,451,457.5,451.3
	z"/>
<path class="st2" d="M546.5,385.3c0,13.6,0,26.8,0,40.1c-0.1,0.8-0.5,1.4-1.1,1.9c-14.2,7.9-28.4,15.9-42.7,23.7
	c-0.2,0.1-0.5,0.1-0.7,0.1v-1.7c0-12.7,0-25.5,0-38.2c-0.2-1.1,0.4-2.2,1.4-2.7c14-7.5,27.9-15,41.8-22.6
	C545.5,385.7,545.9,385.6,546.5,385.3z"/>
<path class="st3" d="M81.7,347.7l9.8-5.5c10.4-5.8,20.8-11.6,31.2-17.3c0.8-0.4,1.8-0.5,2.7-0.2c13.4,7.3,26.8,14.7,40.1,22.2
	c0.3,0.2,0.6,0.4,1.1,0.7c-0.7,0.4-1.2,0.8-1.8,1.1c-12.9,7-25.9,14-38.8,21.1c-1.1,0.7-2.5,0.7-3.6,0
	C109.1,362.5,95.6,355.2,81.7,347.7z"/>
<path class="st3" d="M102.1,451.4l-11.2-6.2c-10.5-5.9-21.1-11.7-31.6-17.6c-0.8-0.5-1.4-1.3-1.6-2.2c-0.1-13.3-0.1-26.5-0.1-40
	c0.7,0.3,1.3,0.6,1.9,0.9c13.7,7.4,27.3,14.8,41,22.2c0.8,0.4,1.3,1.1,1.5,2C102.1,424,102.1,437.4,102.1,451.4z"/>
<path class="st3" d="M191,385.4c0,12.5,0,24.7,0,37c0,0.6-0.3,1.2-0.8,1.6c-11.7,7.4-23.5,14.8-35.3,22.1c-17.7,11-0.1,0-0.3-0.1
	c0-0.4-0.1-0.8-0.1-1.3c0-11.9,0-23.7,0-35.6c0-0.9,0.4-1.7,1-2.3c11.5-7.1,23.1-14.2,34.7-21.3C190.5,385.6,190.8,385.5,191,385.4z
	"/>
<path class="st3" d="M259.8,83.1c0.7-0.4,1.2-0.8,1.8-1.1c13-7.2,25.9-14.4,38.8-21.6c0.9-0.7,2.2-0.8,3.2-0.2
	c13.3,7.5,26.6,14.9,39.9,22.2c0.3,0.1,0.5,0.3,0.9,0.6c-0.4,0.3-0.8,0.6-1.2,0.9c-13.3,7.2-26.5,14.4-39.8,21.5
	c-0.7,0.4-1.6,0.4-2.4,0.2c-13.6-7.3-27.2-14.7-40.8-22.1C260.1,83.5,260.1,83.4,259.8,83.1z"/>
<path class="st3" d="M279.9,186.9c-0.9-0.5-1.5-0.7-2-1.1c-13.6-7.5-27.1-15.1-40.7-22.6c-1-0.6-1.7-1.1-1.7-2.5
	c0.1-12.9,0-25.8,0.1-38.6c0-0.3,0.1-0.7,0.1-1.2c0.8,0.4,1.3,0.6,1.9,0.9c13.6,7.3,27.2,14.7,40.7,22.1c0.8,0.5,1.4,1.3,1.6,2.2
	C279.9,159.6,279.9,173,279.9,186.9z"/>
<path class="st3" d="M324.3,186.9v-33.4c0-2.4-0.1-4.8,0-7.1c0.1-0.9,0.5-1.7,1.2-2.2c14-7.7,28-15.3,42.1-22.8
	c0.2-0.1,0.5-0.2,1.1-0.4v2.1c0,12.4,0,24.9,0,37.3c0,1.1,0,2-1.2,2.8c-14.1,7.7-28.1,15.5-42.1,23.3
	C325.2,186.5,324.9,186.6,324.3,186.9z"/>
</svg>
